<?xml version="1.0" encoding="utf-8"?>
<!-- Generator: Adobe Illustrator 25.2.0, SVG Export Plug-In . SVG Version: 6.00 Build 0)  -->
<svg version="1.1" id="Layer_1" xmlns="http://www.w3.org/2000/svg" xmlns:xlink="http://www.w3.org/1999/xlink" x="0px" y="0px"
	 viewBox="0 0 50 50" style="enable-background:new 0 0 50 50;" xml:space="preserve">
<style type="text/css">
	.st0{fill:#FFFFFF;}
	.st1{fill:#0A0A0A;}
	.st2{fill:url(#SVGID_1_);}
</style>
<g>
	
		<linearGradient id="SVGID_1_" gradientUnits="userSpaceOnUse" x1="16.51" y1="27" x2="33.49" y2="27" gradientTransform="matrix(1 0 0 -1 0 52)">
		<stop  offset="0" style="stop-color:#ADE900"/>
		<stop  offset="0.5" style="stop-color:#A9F44F"/>
		<stop  offset="1" style="stop-color:#EFFDDC"/>
	</linearGradient>
	<path class="st2" d="M18.67,32.24c-0.71-0.86-1.43-1.72-2.16-2.6c2.71-2.14,5.4-4.27,8.1-6.4c0-0.01,0-0.03,0-0.04
		c-1.2-0.13-2.34-0.45-3.45-0.91c-1.1-0.46-2.14-1.04-3.16-1.7c0.61-0.95,1.22-1.88,1.81-2.81c0.57,0.33,1.13,0.66,1.69,0.96
		c0.95,0.5,1.94,0.88,3.01,1.05c1.17,0.19,2.31,0.09,3.44-0.26c1.22-0.38,2.33-0.97,3.4-1.65c0.06-0.04,0.11-0.07,0.18-0.11
		c0.65,0.91,1.3,1.81,1.96,2.73c-2.4,1.91-4.8,3.8-7.23,5.73c2.33,0.59,4.21,1.9,6,3.43c-0.74,0.85-1.47,1.69-2.2,2.54
		c-0.29-0.24-0.57-0.48-0.86-0.7c-0.76-0.59-1.55-1.12-2.42-1.53c-1.61-0.76-3.2-0.75-4.8,0.01c-0.97,0.46-1.83,1.08-2.65,1.75
		C19.11,31.88,18.9,32.06,18.67,32.24z"/>
</g>
</svg>
